<?xml version="1.0" encoding="UTF-8"?>
<!-- Created with Inkscape (http://www.inkscape.org/) -->
<svg version="1.1" viewBox="0 0 96 96" width="96px" height="96px" xmlns="http://www.w3.org/2000/svg" xmlns:cc="http://creativecommons.org/ns#" xmlns:dc="http://purl.org/dc/elements/1.1/" xmlns:osb="http://www.openswatchbook.org/uri/2009/osb" xmlns:rdf="http://www.w3.org/1999/02/22-rdf-syntax-ns#">
 <defs>
  <clipPath id="clipPath4678">
   <rect y="201" width="96" height="96" fill="#1da1f2" opacity=".98"/>
  </clipPath>
  <clipPath id="clipPath4682">
   <rect y="201" width="96" height="96" fill="#1da1f2" opacity=".98"/>
  </clipPath>
  <clipPath id="clipPath4686">
   <rect transform="scale(-1)" x="-25.4" y="-25.4" width="25.4" height="25.4" fill="#1da1f2" opacity=".98"/>
  </clipPath>
  <clipPath id="clipPath4690">
   <rect width="25.4" height="25.4" fill="#1da1f2" opacity=".98"/>
  </clipPath>
  <clipPath id="clipPath4694">
   <rect y="201" width="96" height="96" fill="#1da1f2" opacity=".98"/>
  </clipPath>
  <clipPath id="clipPath4698">
   <rect y="201" width="96" height="96" fill="#1da1f2" opacity=".98"/>
  </clipPath>
  <clipPath id="clipPath4702">
   <rect transform="matrix(1 0 -.010092 .99995 0 0)" y="201.02" width="96" height="96.01" fill="#1da1f2" opacity=".98"/>
  </clipPath>
  <clipPath id="clipPath4706">
   <rect width="25.367" height="24.777" fill="#1da1f2" opacity=".98"/>
  </clipPath>
 </defs>
 <metadata>
  <rdf:RDF>
   <cc:Work rdf:about="">
    <dc:format>image/svg+xml</dc:format>
    <dc:type rdf:resource="http://purl.org/dc/dcmitype/StillImage"/>
    <dc:title/>
   </cc:Work>
  </rdf:RDF>
 </metadata>
 <g transform="translate(0 -201)">
  <rect transform="matrix(3.7844 0 0 3.8746 0 201)" width="25.367" height="24.777" clip-path="url(#clipPath4706)" fill="#1da1f2" opacity=".98"/>
  <g fill="#fff">
   <rect transform="matrix(1 0 .010093 .99995 1.0038e-6 -1.997e-6)" x="19.415" y="231.56" width="52.142" height="34.896" clip-path="url(#clipPath4702)" opacity=".98"/>
   <rect x="3.9421" y="240.29" width="88.116" height="17.428" clip-path="url(#clipPath4698)" opacity=".98"/>
   <path d="m22.252 224.12a35.528 35.496 0 0 0 0.83441 50.192 35.528 35.496 0 0 0 42.248 5.3268l27.594 26.668 13.886-14.342-27.595-26.67a35.528 35.496 0 0 0-6.7302-42.009 35.528 35.496 0 0 0-50.237 0.83366zm7.5592 7.3057a25.01 24.988 0 0 1 35.365-0.58687 25.01 24.988 0 0 1 0.58739 35.334 25.01 24.988 0 0 1-35.365 0.58688 25.01 24.988 0 0 1-0.5874-35.334z" clip-path="url(#clipPath4694)" opacity=".98" stroke="#1da1f2" stroke-width="3.8763"/>
  </g>
  <g transform="matrix(3.7795 0 0 3.7795 0 201)" clip-path="url(#clipPath4690)" fill="#fff">
   <rect x="22.267" y="4.2958" width="2.086" height="5.5604"/>
   <path d="m24.342 6.1185h-5.0602l5.0602-5.0602z" stroke-width=".17601"/>
  </g>
  <g transform="matrix(-3.7795 0 0 -3.7795 96 297)" clip-path="url(#clipPath4686)" fill="#fff">
   <rect x="22.267" y="4.2958" width="2.086" height="5.5604"/>
   <path d="m24.342 6.1185h-5.0602l5.0602-5.0602z" stroke-width=".17601"/>
  </g>
  <text x="42" y="239.74992" clip-path="url(#clipPath4682)" fill="#000000" font-family="sans-serif" font-size="40px" letter-spacing="0px" opacity=".98" stroke-width="1px" word-spacing="0px" style="line-height:125%" xml:space="preserve"><tspan x="42" y="275.14056" stroke-width="1px"/></text>
  <text transform="translate(-.31002 .18952)" x="36.750019" y="259.25046" clip-path="url(#clipPath4678)" fill="#000000" font-family="sans-serif" font-size="40px" letter-spacing="0px" opacity=".98" stroke-width="1px" word-spacing="0px" style="line-height:125%" xml:space="preserve"><tspan x="36.750019" y="259.25046" fill="#1da1f2" font-family="PicoWhiteAl" font-size="40px" stroke-width="1px" style="font-feature-settings:normal;font-variant-caps:normal;font-variant-ligatures:normal;font-variant-numeric:normal">t</tspan></text>
 </g>
</svg>
